<svg width="264" height="83" viewBox="0 0 264 83" fill="none" xmlns="http://www.w3.org/2000/svg">
<path d="M10.6384 66L3.22432 66.3448C1.55758 66.3448 0.724211 66 0.724211 65.3103C0.724211 64.5057 1.15526 63.9597 2.01737 63.6723C3.85653 62.9826 5.46579 61.4596 6.84516 59.1032C8.22453 56.6893 11.6729 49.4763 17.1904 37.4643C22.7654 25.3948 27.7081 14.7622 32.0186 5.56642C32.4209 4.70431 32.7658 4.15831 33.0532 3.92842C33.398 3.69852 33.8578 3.58358 34.4325 3.58358C35.0647 3.58358 35.4671 3.69852 35.6395 3.92842C35.8119 4.15831 36.128 4.93421 36.5878 6.2561C37.0476 7.578 37.3924 8.58379 37.6223 9.27347C37.9097 9.96316 38.3407 11.0839 38.9155 12.6357C39.4902 14.1875 40.4098 16.5152 41.6742 19.6187C42.9386 22.7223 45.8123 29.5329 50.2953 40.0506C54.8357 50.5108 57.4507 56.4594 58.1404 57.8962C58.8301 59.2756 59.7784 60.4825 60.9854 61.5171C62.1923 62.4941 63.2268 63.0401 64.089 63.1551C65.0085 63.2125 65.7557 63.3562 66.3304 63.5861C66.9626 63.7585 67.2787 64.1896 67.2787 64.8793C67.2787 65.7414 66.5028 66.1724 64.9511 66.1724L57.1921 65.6552L49.1745 66C47.3928 66 46.2434 65.9425 45.7261 65.8276C45.2663 65.6552 45.0364 65.3391 45.0364 64.8793C45.0364 64.4195 45.2663 64.0746 45.7261 63.8447C46.1859 63.5574 46.6744 63.3849 47.1917 63.3275C47.7089 63.2125 48.1975 62.9539 48.6573 62.5516C49.1171 62.0918 49.347 61.3734 49.347 60.3963C49.347 59.3618 48.6285 56.8904 47.1917 52.9822C45.7548 49.074 44.5479 46.2003 43.5708 44.3612C43.0536 43.3841 41.8754 42.8956 40.0362 42.8956L29.6047 43.068H25.0356C22.4493 43.068 20.8113 43.2117 20.1216 43.4991C19.4894 43.7864 18.9434 44.3899 18.4836 45.3095C18.0813 46.2291 17.4778 47.5222 16.6732 49.1889C15.8685 50.7982 15.3225 51.9189 15.0352 52.5512C14.7478 53.1834 14.4029 53.988 14.0006 54.9651C13.2535 56.6893 12.8799 58.1261 12.8799 59.2756C12.8799 60.4251 13.196 61.3446 13.8282 62.0343C14.5179 62.724 15.2651 63.1263 16.0697 63.2413C18.1962 63.4137 19.2595 63.9597 19.2595 64.8793C19.2595 65.2816 19.1733 65.5977 19.0008 65.8276C18.8284 66 18.4261 66.0862 17.7939 66.0862L10.6384 66ZM31.4152 16.86C30.8979 16.86 29.2599 20.0498 26.5012 26.4294C23.7424 32.7515 22.3631 36.2574 22.3631 36.9471C22.3631 37.6367 22.6217 38.0678 23.1389 38.2402C23.6562 38.4126 24.8632 38.4988 26.7598 38.4988H29.4323L37.6223 38.4126C39.8638 38.4126 40.9845 38.0103 40.9845 37.2057C40.9845 36.3436 39.5764 32.7515 36.7602 26.4294C33.944 20.0498 32.1623 16.86 31.4152 16.86ZM81.9184 82.38L78.2113 82.4662C77.1193 82.4662 76.5733 82.0926 76.5733 81.3455C76.5733 81.1731 77.2055 80.2822 78.4699 78.6729C79.7918 77.0637 81.1137 75.0808 82.4356 72.7244C83.7575 70.368 84.4185 68.2702 84.4185 66.4311C84.4185 64.6494 82.7805 60.1952 79.5045 53.0684C76.2285 45.9417 73.3835 40.1081 70.9696 35.5677C70.3374 34.4182 69.6765 33.5274 68.9868 32.8952C68.3546 32.2629 67.8373 31.9181 67.435 31.8606C66.5154 31.7457 66.0556 31.3146 66.0556 30.5675C66.0556 29.8203 66.6304 29.4467 67.7798 29.4467L77.0044 29.6192L81.9184 29.4467C82.3207 29.4467 82.6655 29.5617 82.9529 29.7916C83.2977 29.964 83.4702 30.1652 83.4702 30.3951C83.4702 31.4296 82.7805 31.9468 81.4011 31.9468H80.1079C79.1884 31.9468 78.7286 32.6653 78.7286 34.1021C78.7286 35.8263 80.2516 39.9644 83.2977 46.5164C83.7575 47.4935 84.4472 49.0453 85.3668 51.1718C87.091 55.08 88.1255 57.0341 88.4704 57.0341C88.8152 57.0341 90.1371 53.7294 92.436 47.1199C94.7925 40.5104 95.9707 36.5735 95.9707 35.3091C95.9707 34.0446 95.6833 33.1538 95.1086 32.6365C94.5913 32.1193 93.9878 31.8606 93.2982 31.8606C91.5165 31.9756 90.6256 31.4871 90.6256 30.3951C90.6256 29.7054 91.1716 29.3605 92.2636 29.3605L98.4708 29.4467L103.816 29.3605C105.023 29.3605 105.626 29.7341 105.626 30.4813C105.626 31.056 105.109 31.4871 104.074 31.7744C103.097 32.0043 102.436 32.3492 102.092 32.8089C101.172 34.1308 99.6203 37.7517 97.4363 43.6715L89.7635 64.1034C89.1313 65.7701 88.4991 67.4656 87.8669 69.1898C87.2347 70.9715 86.7174 72.4083 86.3151 73.5003C85.9128 74.5923 85.5105 75.6843 85.1082 76.7763C84.7058 77.8683 84.3897 78.7017 84.1598 79.2764C83.9299 79.9086 83.7 80.4834 83.4702 81.0006C83.0104 81.9202 82.5793 82.38 82.177 82.38H81.9184ZM115.372 52.5512L115.458 37.0333C115.458 35.8838 115.142 34.9642 114.51 34.2745C113.935 33.5848 113.389 33.24 112.872 33.24H111.32C110.286 33.24 109.768 32.8377 109.768 32.0331C109.768 31.2284 110.314 30.7112 111.406 30.4813C112.556 30.2514 113.935 30.1364 115.545 30.1364L120.459 29.7054C121.436 29.7054 122.01 29.9065 122.183 30.3088C122.355 30.7112 122.441 31.7169 122.441 33.3262C122.441 34.9355 122.355 37.1482 122.183 39.9644C122.068 42.7232 122.01 45.798 122.01 49.1889C122.01 54.2466 122.987 57.8387 124.941 59.9653C126.896 62.0343 129.108 63.0688 131.58 63.0688C135.258 63.0688 137.931 62.2929 139.597 60.7412C141.264 59.1894 142.097 56.4594 142.097 52.5512L141.925 40.6541C141.925 37.7804 141.695 35.8551 141.235 34.878C140.775 33.8435 139.798 33.2687 138.304 33.1538C136.81 32.9814 136.063 32.5791 136.063 31.9468C136.063 30.6249 138.591 29.964 143.649 29.964L146.753 29.5329C147.615 29.5329 148.161 29.6766 148.391 29.964C148.678 30.2514 148.822 30.6824 148.822 31.2572C148.822 31.7744 148.793 32.4641 148.736 33.3262C148.736 34.1308 148.707 35.2228 148.649 36.6022C148.649 37.9816 148.621 39.5334 148.563 41.2576C148.448 44.706 148.391 48.5567 148.391 52.8098C148.391 57.0628 148.563 59.8216 148.908 61.086C149.253 62.3504 149.885 62.9826 150.805 62.9826L153.046 62.8964C154.425 62.8964 155.115 63.2413 155.115 63.9309C155.115 64.6206 154.914 65.0517 154.512 65.2241C154.109 65.3965 153.333 65.4827 152.184 65.4827C151.035 65.4827 149.282 65.6552 146.925 66C144.626 66.2874 143.391 66.4311 143.218 66.4311C142.816 66.4311 142.471 65.7126 142.184 64.2758C141.954 62.7815 141.781 62.0343 141.666 62.0343C141.609 62.0343 141.063 62.4941 140.028 63.4137C138.994 64.3333 137.499 65.2528 135.545 66.1724C133.649 67.092 131.551 67.5518 129.252 67.5518C119.999 67.5518 115.372 62.5516 115.372 52.5512ZM185.217 31.4296L185.562 36.6022C185.562 37.5793 185.447 38.2402 185.217 38.5851C184.988 38.9299 184.643 39.1023 184.183 39.1023C183.781 39.1023 183.321 38.7 182.804 37.8954C182.344 37.0333 181.798 36.1137 181.166 35.1366C180.591 34.1596 179.614 33.2687 178.234 32.4641C176.912 31.602 175.389 31.1709 173.665 31.1709C171.941 31.1709 170.533 31.602 169.441 32.4641C168.349 33.2687 167.803 34.1596 167.803 35.1366C167.803 36.1137 167.889 36.9183 168.062 37.5505C168.234 38.1253 168.521 38.6425 168.924 39.1023C169.383 39.5621 169.757 39.9644 170.044 40.3093C170.389 40.5966 170.935 40.9127 171.682 41.2576C172.43 41.6024 172.976 41.8611 173.32 42.0335C173.723 42.1484 174.355 42.3783 175.217 42.7232C180.447 44.5623 183.809 46.3727 185.304 48.1544C186.798 49.8786 187.545 52.3787 187.545 55.6547C187.545 58.9307 186.022 61.9481 182.976 64.7068C180.907 66.4885 178.062 67.3794 174.441 67.3794C171.97 67.3794 169.211 66.7759 166.165 65.5689C165.303 65.2241 164.786 65.0517 164.613 65.0517C164.498 64.9942 164.268 64.908 163.923 64.7931C163.636 64.6781 163.406 64.6206 163.234 64.6206C163.119 64.5632 162.946 64.4769 162.716 64.362C162.487 64.2471 162.314 64.1608 162.199 64.1034C162.142 63.9884 162.056 63.8447 161.941 63.6723C161.768 63.3849 161.682 62.9252 161.682 62.2929V54.7926C161.682 54.1604 161.797 53.6432 162.027 53.2408C162.314 52.7811 162.688 52.5512 163.148 52.5512C163.607 52.5512 163.923 52.6948 164.096 52.9822C164.326 53.2121 164.527 53.7294 164.699 54.534C164.872 55.3386 165.044 55.9134 165.217 56.2582C167.343 61.5458 170.332 64.1896 174.182 64.1896C175.964 64.1896 177.66 63.7298 179.269 62.8102C180.878 61.8332 181.683 60.3388 181.683 58.3273C181.683 56.2582 181.022 54.5915 179.7 53.3271C178.378 52.0626 176.769 51.0856 174.872 50.3959C172.976 49.6487 171.079 48.9016 169.182 48.1544C167.286 47.3498 165.676 46.2003 164.354 44.706C163.033 43.1542 162.372 41.2288 162.372 38.9299C162.372 35.7114 163.665 33.1251 166.251 31.1709C168.837 29.2168 171.682 28.2398 174.786 28.2398C177.89 28.2398 180.246 28.4984 181.855 29.0157C183.464 29.4755 184.413 29.9065 184.7 30.3088C185.045 30.7112 185.217 31.0847 185.217 31.4296ZM202.165 65.5689L196.044 66C194.607 66 193.86 65.9138 193.802 65.7414C193.745 65.5689 193.716 65.3678 193.716 65.1379C193.716 64.5632 194.061 64.1896 194.75 64.0172C196.417 63.5574 197.48 62.8389 197.94 61.8619C198.457 60.8274 198.716 59.3331 198.716 57.3789L199.061 27.9812V23.7568C199.061 15.9404 198.889 11.1701 198.544 9.44589C198.199 7.72168 197.164 6.85958 195.44 6.85958H194.319L193.975 6.77337C192.997 6.77337 192.509 6.51473 192.509 5.99747C192.509 5.48021 192.796 5.07789 193.371 4.79052C194.003 4.44568 194.865 4.12958 195.957 3.84221C197.107 3.55484 198.716 2.95137 200.785 2.03179C202.854 1.11221 204.147 0.65242 204.665 0.65242C205.412 0.65242 205.785 1.31337 205.785 2.63526C205.785 2.92263 205.67 3.61231 205.441 4.70431C205.268 5.79631 205.153 7.92284 205.096 11.0839C205.096 14.1875 205.038 17.5497 204.923 21.1705C204.866 24.7339 204.808 27.1478 204.751 28.4122C204.636 30.8261 204.578 32.5216 204.578 33.4986C204.578 34.4757 204.808 34.9642 205.268 34.9642C205.383 34.9642 205.958 34.4469 206.992 33.4124C208.084 32.3204 209.55 31.2572 211.389 30.2226C213.286 29.1306 215.297 28.5846 217.424 28.5846C222.079 28.5846 225.7 29.964 228.286 32.7227C230.873 35.4815 232.166 39.7633 232.166 45.5681V58.0686C232.166 59.6204 232.453 60.8274 233.028 61.6895C233.603 62.5516 234.264 63.0114 235.011 63.0688C238.114 63.3562 239.666 63.9597 239.666 64.8793C239.666 65.7988 238.775 66.2586 236.994 66.2586L229.752 65.8276L223.114 66.0862C221.792 66.0862 221.131 65.7988 221.131 65.2241C221.131 64.1896 221.907 63.6723 223.459 63.6723C224.033 63.6723 224.551 63.3562 225.01 62.724C225.528 62.0918 225.786 61.1147 225.786 59.7928L225.872 57.5514L225.959 45.4819C225.959 41.976 224.895 38.9586 222.769 36.4298C220.642 33.8435 218.171 32.5503 215.355 32.5503C212.596 32.5503 209.78 33.6711 206.906 35.9125C205.872 36.7172 205.211 38.0391 204.923 39.8782C204.636 41.6599 204.492 45.6543 204.492 51.8615V53.8443C204.492 56.4306 204.693 58.5284 205.096 60.1377C205.728 62.3792 207.308 63.5861 209.837 63.7585C210.642 63.816 211.245 63.9309 211.648 64.1034C212.107 64.2183 212.337 64.5057 212.337 64.9655C212.337 65.6552 212.021 66 211.389 66L209.148 65.9138C207.653 65.8563 206.13 65.7988 204.578 65.7414C203.084 65.6264 202.279 65.5689 202.165 65.5689ZM255.09 66.3448L248.969 66.5173C246.67 66.5173 245.521 66.1437 245.521 65.3965C245.521 64.5919 245.952 64.0459 246.814 63.7585C246.872 63.7585 246.987 63.7298 247.159 63.6723C248.481 63.2125 249.343 62.5228 249.745 61.6033C250.148 60.6837 250.349 56.2295 250.349 48.2406V40.6541C250.349 38.9874 250.148 37.6655 249.745 36.6884C249.343 35.7114 248.969 35.1079 248.625 34.878C248.28 34.6481 247.676 34.4757 246.814 34.3607C246.01 34.1883 245.406 34.0446 245.004 33.9297C244.659 33.7573 244.486 33.5274 244.486 33.24C244.486 32.8952 244.544 32.6365 244.659 32.4641C244.831 32.2917 245.119 32.1193 245.521 31.9468C245.981 31.7169 246.441 31.5158 246.9 31.3434C248.51 30.8836 249.832 30.4238 250.866 29.964C251.901 29.5042 252.676 29.1594 253.194 28.9295C253.768 28.6996 254.142 28.5272 254.314 28.4122C254.717 28.2398 255.205 28.1536 255.78 28.1536C256.642 28.1536 257.073 28.6996 257.073 29.7916L256.556 33.9297V57.5514C256.556 59.2756 256.815 60.6262 257.332 61.6033C257.907 62.5803 258.481 63.1838 259.056 63.4137C259.688 63.6436 260.407 63.7873 261.211 63.8447C262.016 63.9022 262.533 63.9309 262.763 63.9309C263.568 64.0459 263.97 64.4482 263.97 65.1379C263.97 66.1149 263.482 66.6035 262.504 66.6035L261.211 66.5173L255.09 66.3448ZM253.625 20.0498C252.475 20.0498 251.47 19.4463 250.607 18.2394C249.803 17.0324 249.4 16.0554 249.4 15.3082C249.4 14.5036 249.889 13.4978 250.866 12.2908C251.901 11.0264 252.849 10.3942 253.711 10.3942C254.631 10.3942 255.521 10.9977 256.384 12.2046C257.246 13.3541 257.677 14.3886 257.677 15.3082C257.677 16.2278 257.131 17.2623 256.039 18.4118C254.947 19.5038 254.142 20.0498 253.625 20.0498Z" fill="black" style="fill:black;fill-opacity:1;"/>
</svg>
