<?xml version="1.0" encoding="UTF-8"?>
<svg version="1.1" viewBox="0 0 2048 817" width="1280" height="1280" xmlns="http://www.w3.org/2000/svg">
<path transform="translate(0)" d="m0 0h2048v817h-2048z" fill="#FDFCFC"/>
<path transform="translate(587,310)" d="m0 0h80l3 4v8l-5 5-20 6h-2l3 13 11 29 18 43 15 38 5 13v2h3l26-58 10-26 9-25 3-9 1-12-8-7-16-7-3-5v-11l2-1h74l15 1h68v132l1 29 2 14 4 9 6 7 9 6 11 4h11l11-3 10-5 11-9 13-11 1-2v-54l-1-52-1-22-2-11-7-8-4-2-22-3-3-1-1-14 4-1 65-4h15v159l1 25 2 6 9 6 19 7 3 2 1 9-6 2-31 4-16 1h-24l1-31-6 4-12 11-16 11-12 6-13 3-8 1h-17l-14-3-12-6-8-7-6-8-5-11-4-18-2-21-1-86-1-23-2-9-5-5-9-6-12-5-5-3-6 2-14 10-7 8-9 16-7 15-14 31-15 37-9 23-16 40-11 25-13 27-12 22-10 15-8 10-10 11-10 7-12 5-10 1h-9l-10-3-10-7-7-8-2-6v-10l4-10 4-5 10-5h11l11 6 8 8 8 11 4 1 7-7 10-13 8-14 9-16 7-15 1-10-3-10-11-27-20-50-15-36-16-38-8-17-8-11-10-6-12-5-3-4-1-10 2-2z" fill="#FFD242"/>
<path transform="translate(417,211)" d="m0 0h9l6 5 9 21 14 37 16 41 40 104 13 34 14 34 7 12 7 6 17 8 10 4 5 5-1 6-1 2-10 2h-80l-42-1v-13l33-11 8-5-1-8-17-47-8-19-3-5-86-1h-22l-6 14-9 25-7 25-1 5v11l5 2 19 7 19 6 4 3-1 9-3 2-7 1h-43l-58-1v-11l3-5 7-5 14-7 10-9 9-17 15-38 19-48 12-31 11-28 18-46 14-35 13-34 4-5z" fill="#10ACF9"/>
<path transform="translate(1334,187)" d="m0 0 3 1 1 154 11-9 12-11 15-9 9-4 15-3h19l14 3 9 4 11 7 9 11 8 16 3 12 1 11 1 127 8 10 10 6 12 6 2 2-1 8-2 3-3 1h-77l-27-1 1-12 3-3 10-3 11-6 8-6 1-11v-102l-1-23-3-10-6-9-9-8-9-4-4-1h-12l-15 4-14 7-10 8-8 8-2 4v91l1 40 3 5 9 8 19 9 2 2-1 13h-84l-22-1-3-1v-11l1-2 15-5 11-7 6-5 1-17v-217l-1-33-2-10-5-6-10-5-21-7-4-2-2-5v-5l7-2 55-4z" fill="#3DB972"/>
<path transform="translate(587,310)" d="m0 0h80l3 4v8l-5 5-20 6h-2l3 13 11 29 18 43 15 38 5 13v2h3l26-58 10-26 9-25 3-9 1-12-8-7-16-7-3-5v-11l2-1h74l6 1v6l-5 9-12 8-8 7-9 14-10 21-14 31-15 37-9 23-16 40-11 25-13 27-12 22-10 15-8 10-10 11-10 7-12 5-10 1h-9l-10-3-10-7-7-8-2-6v-10l4-10 4-5 10-5h11l11 6 8 8 8 11 4 1 7-7 10-13 8-14 9-16 7-15 1-10-3-10-11-27-20-50-15-36-16-38-8-17-8-11-10-6-12-5-3-4-1-10 2-2z" fill="#FF4A52"/>
<path transform="translate(1213,305)" d="m0 0h6l1 3 3 41v25l-2 3-4 1-6-3-4-5-6-15-7-11-5-5-8-7-8-4-11-3-7-1h-8l-15 3-10 6-7 9-3 9v7l3 11 5 8 7 6 17 7 37 14 23 11 14 11 9 10 6 12 3 10v19l-3 12-6 10-11 14-10 9-15 8-12 4-10 2h-26l-18-4-18-8-12-5-6 13h-14l-2-6-1-16-1-50 1-4 3-1h9l5 6 7 16 7 12 11 12 10 8 12 6 12 3 7 1h10l15-4 9-6 8-9 3-7 1-5v-11l-3-10-6-8-11-7-15-7-36-13-16-7-13-9-11-11-6-10-4-10-2-10v-9l4-18 6-12 11-12 9-7 15-7 18-4h24l17 4 17 6 6-7z" fill="#10ACF9"/>
<path transform="translate(1588,309)" d="m0 0h18l1 1v181l2 10 5 5 24 12 2 3-1 10-1 1-20 1h-67l-16-1-4-2 1-12 7-3 12-3 8-5 3-5 1-13v-117l-1-23-3-5-7-6-11-5-13-2-3-3-1-10 3-5 4-1z" fill="#FF4A52"/>
<path transform="translate(406,287)" d="m0 0 3 1 7 14 16 39 13 32 8 21 1 7-1 1-90 1-2-2 6-18 12-30 14-36 10-26z" fill="#FDFDFD"/>
<path transform="translate(1575,195)" d="m0 0h14l9 4 8 8 5 10 1 3v9l-7 13-10 10-6 3-8 1-11-4-8-6-6-8-3-9v-9l4-11 9-10z" fill="#FF4952"/>
</svg>
