<svg width="136" height="136" viewBox="0 0 136 136" fill="none" xmlns="http://www.w3.org/2000/svg">
<rect width="136" height="136" fill="#02101A" style="fill:#02101A;fill:color(display-p3 0.0086 0.0624 0.1034);fill-opacity:1;"/>
<path d="M44.6384 98L37.2243 98.3448C35.5576 98.3448 34.7242 98 34.7242 97.3103C34.7242 96.5057 35.1553 95.9597 36.0174 95.6723C37.8565 94.9826 39.4658 93.4596 40.8452 91.1032C42.2245 88.6893 45.6729 81.4763 51.1904 69.4643C56.7654 57.3948 61.7081 46.7622 66.0186 37.5664C66.4209 36.7043 66.7658 36.1583 67.0532 35.9284C67.398 35.6985 67.8578 35.5836 68.4325 35.5836C69.0647 35.5836 69.4671 35.6985 69.6395 35.9284C69.8119 36.1583 70.128 36.9342 70.5878 38.2561C71.0476 39.578 71.3924 40.5838 71.6223 41.2735C71.9097 41.9632 72.3407 43.0839 72.9155 44.6357C73.4902 46.1875 74.4098 48.5152 75.6742 51.6187C76.9386 54.7223 79.8123 61.5329 84.2953 72.0506C88.8357 82.5108 91.4507 88.4594 92.1404 89.8962C92.8301 91.2756 93.7784 92.4825 94.9854 93.5171C96.1923 94.4941 97.2268 95.0401 98.089 95.1551C99.0085 95.2125 99.7557 95.3562 100.33 95.5861C100.963 95.7585 101.279 96.1896 101.279 96.8793C101.279 97.7414 100.503 98.1724 98.9511 98.1724L91.1921 97.6552L83.1745 98C81.3928 98 80.2434 97.9425 79.7261 97.8276C79.2663 97.6552 79.0364 97.3391 79.0364 96.8793C79.0364 96.4195 79.2663 96.0746 79.7261 95.8447C80.1859 95.5574 80.6744 95.3849 81.1917 95.3275C81.7089 95.2125 82.1975 94.9539 82.6573 94.5516C83.1171 94.0918 83.347 93.3734 83.347 92.3963C83.347 91.3618 82.6285 88.8904 81.1917 84.9822C79.7548 81.074 78.5479 78.2003 77.5708 76.3612C77.0536 75.3841 75.8754 74.8956 74.0362 74.8956L63.6047 75.068H59.0356C56.4493 75.068 54.8113 75.2117 54.1216 75.4991C53.4894 75.7864 52.9434 76.3899 52.4836 77.3095C52.0813 78.2291 51.4778 79.5222 50.6732 81.1889C49.8685 82.7982 49.3225 83.9189 49.0352 84.5512C48.7478 85.1834 48.4029 85.988 48.0006 86.9651C47.2535 88.6893 46.8799 90.1261 46.8799 91.2756C46.8799 92.4251 47.196 93.3446 47.8282 94.0343C48.5179 94.724 49.2651 95.1263 50.0697 95.2413C52.1962 95.4137 53.2595 95.9597 53.2595 96.8793C53.2595 97.2816 53.1733 97.5977 53.0008 97.8276C52.8284 98 52.4261 98.0862 51.7939 98.0862L44.6384 98ZM65.4152 48.86C64.8979 48.86 63.2599 52.0498 60.5012 58.4294C57.7424 64.7515 56.3631 68.2574 56.3631 68.9471C56.3631 69.6367 56.6217 70.0678 57.1389 70.2402C57.6562 70.4126 58.8632 70.4988 60.7598 70.4988H63.4323L71.6223 70.4126C73.8638 70.4126 74.9845 70.0103 74.9845 69.2057C74.9845 68.3436 73.5764 64.7515 70.7602 58.4294C67.944 52.0498 66.1623 48.86 65.4152 48.86Z" fill="white" style="fill:white;fill-opacity:1;"/>
</svg>
